<svg width="149" height="18" viewBox="0 0 149 18" fill="none" xmlns="http://www.w3.org/2000/svg">
<path d="M0.634844 5.52H3.59484V13.88C3.47484 13.9067 3.28818 13.94 3.03484 13.98C2.79484 14.02 2.53484 14.04 2.25484 14.04C1.76151 14.04 1.36818 13.8933 1.07484 13.6C0.78151 13.3067 0.634844 12.9133 0.634844 12.42V5.52ZM3.59484 10.36H0.634844V3.5C0.634844 2.99333 0.78151 2.6 1.07484 2.32C1.36818 2.02667 1.76151 1.88 2.25484 1.88C2.53484 1.88 2.79484 1.9 3.03484 1.94C3.28818 1.98 3.47484 2.01333 3.59484 2.04V10.36ZM2.25484 9.02V6.62H8.29484C8.37484 6.75333 8.44818 6.92 8.51484 7.12C8.58151 7.32 8.61484 7.54 8.61484 7.78C8.61484 8.20667 8.51484 8.52 8.31484 8.72C8.12818 8.92 7.87484 9.02 7.55484 9.02H2.25484ZM2.25484 14.04V11.62H8.95484C9.03484 11.74 9.10818 11.9067 9.17484 12.12C9.24151 12.3333 9.27484 12.56 9.27484 12.8C9.27484 13.2267 9.17484 13.54 8.97484 13.74C8.78818 13.94 8.53484 14.04 8.21484 14.04H2.25484ZM2.25484 4.28V1.88H8.85484C8.94818 2 9.02151 2.16 9.07484 2.36C9.14151 2.56 9.17484 2.78 9.17484 3.02C9.17484 3.44667 9.08151 3.76667 8.89484 3.98C8.70818 4.18 8.44818 4.28 8.11484 4.28H2.25484ZM14.4119 8.04L14.9519 7.98C15.4319 7.35333 15.8985 6.74 16.3519 6.14C16.8052 5.54 17.2652 4.92 17.7319 4.28C17.7852 4.26667 17.8385 4.26 17.8919 4.26C17.9452 4.26 17.9919 4.26 18.0319 4.26C18.5785 4.26 19.0119 4.38 19.3319 4.62C19.6519 4.84667 19.8119 5.14667 19.8119 5.52C19.8119 5.81333 19.7385 6.08 19.5919 6.32C19.4452 6.54667 19.1919 6.87333 18.8319 7.3C18.4719 7.71333 18.1052 8.13333 17.7319 8.56C17.3719 8.97333 17.0119 9.38667 16.6519 9.8L15.7519 10.22C15.2985 10.8733 14.8385 11.5267 14.3719 12.18C13.9052 12.8333 13.4452 13.4867 12.9919 14.14C12.9385 14.14 12.8719 14.14 12.7919 14.14C12.7119 14.1533 12.6452 14.16 12.5919 14.16C12.0185 14.16 11.5719 14.04 11.2519 13.8C10.9452 13.5467 10.7919 13.24 10.7919 12.88C10.7919 12.6133 10.8519 12.3733 10.9719 12.16C11.1052 11.9467 11.3385 11.6467 11.6719 11.26C12.1119 10.7267 12.5652 10.1933 13.0319 9.66C13.4985 9.11333 13.9585 8.57333 14.4119 8.04ZM16.1519 8.28L16.8319 8.64C17.3385 9.32 17.8585 10.0067 18.3919 10.7C18.9252 11.38 19.4452 12.0667 19.9519 12.76C19.8985 13.2 19.7252 13.5533 19.4319 13.82C19.1519 14.0733 18.8052 14.2 18.3919 14.2C17.9652 14.1867 17.6185 14.06 17.3519 13.82C17.0852 13.58 16.8185 13.28 16.5519 12.92C16.2185 12.44 15.8785 11.9533 15.5319 11.46C15.1852 10.9667 14.8452 10.48 14.5119 10L14.0119 9.66C13.4519 9.00667 12.9052 8.36 12.3719 7.72C11.8385 7.06667 11.2985 6.41333 10.7519 5.76C10.8452 5.32 11.0319 4.96 11.3119 4.68C11.5919 4.4 11.9319 4.26 12.3319 4.26C12.7185 4.26 13.0185 4.35333 13.2319 4.54C13.4452 4.72667 13.6785 4.99333 13.9319 5.34C14.2919 5.80667 14.6519 6.28667 15.0119 6.78C15.3852 7.27333 15.7652 7.77333 16.1519 8.28ZM26.3458 14.3C25.8391 14.3 25.3858 14.2333 24.9858 14.1C24.5858 13.98 24.2391 13.84 23.9458 13.68V11.18C24.1724 11.3667 24.4458 11.54 24.7658 11.7C25.0991 11.86 25.4724 11.94 25.8858 11.94C26.6191 11.94 27.1858 11.7067 27.5858 11.24C27.9991 10.7733 28.2058 10.0733 28.2058 9.14C28.2058 8.5 28.1124 7.98667 27.9258 7.6C27.7524 7.2 27.4991 6.90667 27.1658 6.72C26.8324 6.53333 26.4391 6.44 25.9858 6.44C25.6791 6.44 25.3991 6.48 25.1458 6.56C24.9058 6.62667 24.6991 6.71333 24.5258 6.82V12.94H21.5858V6.4C21.5858 6.06667 21.6524 5.79333 21.7858 5.58C21.9191 5.35333 22.1258 5.15333 22.4058 4.98C22.8058 4.72667 23.3124 4.52 23.9258 4.36C24.5391 4.18667 25.2258 4.1 25.9858 4.1C27.0124 4.1 27.9191 4.28 28.7058 4.64C29.5058 4.98667 30.1258 5.53333 30.5658 6.28C31.0058 7.01333 31.2258 7.96667 31.2258 9.14C31.2258 10.2733 31.0124 11.22 30.5858 11.98C30.1591 12.74 29.5791 13.32 28.8458 13.72C28.1124 14.1067 27.2791 14.3 26.3458 14.3ZM24.5458 12.18V17.56C24.4124 17.6 24.2258 17.64 23.9858 17.68C23.7458 17.72 23.4858 17.74 23.2058 17.74C22.6458 17.74 22.2324 17.64 21.9658 17.44C21.7124 17.24 21.5858 16.8733 21.5858 16.34V12.18H24.5458ZM36.0692 6.98V9.48H33.1092V6.62C33.1092 6.24667 33.1959 5.93333 33.3692 5.68C33.5559 5.41333 33.8092 5.18 34.1292 4.98C34.5692 4.71333 35.0959 4.50667 35.7092 4.36C36.3359 4.2 36.9892 4.12 37.6692 4.12C39.0292 4.12 39.7092 4.57333 39.7092 5.48C39.7092 5.69333 39.6759 5.89333 39.6092 6.08C39.5559 6.26667 39.4892 6.42667 39.4092 6.56C39.2759 6.53333 39.1092 6.51333 38.9092 6.5C38.7226 6.47333 38.5159 6.46 38.2892 6.46C37.8892 6.46 37.4892 6.50667 37.0892 6.6C36.6892 6.69333 36.3492 6.82 36.0692 6.98ZM33.1092 8.72L36.0692 8.78V13.98C35.9359 14.02 35.7492 14.0533 35.5092 14.08C35.2692 14.12 35.0092 14.14 34.7292 14.14C34.1692 14.14 33.7559 14.04 33.4892 13.84C33.2359 13.64 33.1092 13.28 33.1092 12.76V8.72ZM42.2431 10.6L42.1231 8.6L47.0831 7.82C47.0565 7.44667 46.8965 7.1 46.6031 6.78C46.3098 6.46 45.8765 6.3 45.3031 6.3C44.7031 6.3 44.2031 6.50667 43.8031 6.92C43.4031 7.32 43.1898 7.89333 43.1631 8.64L43.2631 10.02C43.3831 10.7533 43.6965 11.28 44.2031 11.6C44.7098 11.9067 45.3098 12.06 46.0031 12.06C46.5631 12.06 47.0898 11.98 47.5831 11.82C48.0765 11.66 48.4765 11.4933 48.7831 11.32C48.9831 11.44 49.1431 11.6067 49.2631 11.82C49.3965 12.0333 49.4631 12.26 49.4631 12.5C49.4631 12.9 49.3031 13.2333 48.9831 13.5C48.6765 13.7667 48.2431 13.9667 47.6831 14.1C47.1365 14.2333 46.5098 14.3 45.8031 14.3C44.7765 14.3 43.8498 14.1067 43.0231 13.72C42.2098 13.3333 41.5698 12.7533 41.1031 11.98C40.6365 11.2067 40.4031 10.24 40.4031 9.08C40.4031 8.22667 40.5365 7.48667 40.8031 6.86C41.0831 6.23333 41.4498 5.72 41.9031 5.32C42.3698 4.90667 42.8898 4.6 43.4631 4.4C44.0498 4.2 44.6565 4.1 45.2831 4.1C46.2031 4.1 47.0031 4.28667 47.6831 4.66C48.3765 5.02 48.9165 5.51333 49.3031 6.14C49.6898 6.76667 49.8831 7.49333 49.8831 8.32C49.8831 8.73333 49.7698 9.04667 49.5431 9.26C49.3165 9.47333 49.0031 9.60667 48.6031 9.66L42.2431 10.6ZM59.5025 11.2C59.5025 12.1733 59.1358 12.94 58.4025 13.5C57.6692 14.0467 56.6025 14.32 55.2025 14.32C54.1092 14.32 53.2092 14.16 52.5025 13.84C51.7958 13.52 51.4425 13.0467 51.4425 12.42C51.4425 12.14 51.5025 11.9 51.6225 11.7C51.7425 11.4867 51.8958 11.32 52.0825 11.2C52.4558 11.4133 52.8892 11.6133 53.3825 11.8C53.8892 11.9733 54.4625 12.06 55.1025 12.06C56.0758 12.06 56.5625 11.78 56.5625 11.22C56.5625 10.98 56.4758 10.7933 56.3025 10.66C56.1292 10.5133 55.8425 10.4067 55.4425 10.34L54.6025 10.14C53.5358 9.91333 52.7358 9.56667 52.2025 9.1C51.6825 8.62 51.4225 7.96667 51.4225 7.14C51.4225 6.20667 51.7958 5.46667 52.5425 4.92C53.3025 4.36 54.3225 4.08 55.6025 4.08C56.2425 4.08 56.8225 4.14667 57.3425 4.28C57.8758 4.4 58.2958 4.59333 58.6025 4.86C58.9092 5.11333 59.0625 5.43333 59.0625 5.82C59.0625 6.08667 59.0092 6.32 58.9025 6.52C58.7958 6.72 58.6558 6.88667 58.4825 7.02C58.3358 6.92667 58.1092 6.82667 57.8025 6.72C57.5092 6.61333 57.1825 6.52667 56.8225 6.46C56.4758 6.39333 56.1492 6.36 55.8425 6.36C55.3625 6.36 54.9892 6.42667 54.7225 6.56C54.4558 6.68 54.3225 6.87333 54.3225 7.14C54.3225 7.31333 54.3958 7.46667 54.5425 7.6C54.7025 7.72 54.9758 7.82 55.3625 7.9L56.1625 8.1C57.3492 8.36667 58.2025 8.75333 58.7225 9.26C59.2425 9.75333 59.5025 10.4 59.5025 11.2ZM69.1314 11.2C69.1314 12.1733 68.7647 12.94 68.0314 13.5C67.2981 14.0467 66.2314 14.32 64.8314 14.32C63.7381 14.32 62.8381 14.16 62.1314 13.84C61.4247 13.52 61.0714 13.0467 61.0714 12.42C61.0714 12.14 61.1314 11.9 61.2514 11.7C61.3714 11.4867 61.5247 11.32 61.7114 11.2C62.0847 11.4133 62.5181 11.6133 63.0114 11.8C63.5181 11.9733 64.0914 12.06 64.7314 12.06C65.7047 12.06 66.1914 11.78 66.1914 11.22C66.1914 10.98 66.1047 10.7933 65.9314 10.66C65.7581 10.5133 65.4714 10.4067 65.0714 10.34L64.2314 10.14C63.1647 9.91333 62.3647 9.56667 61.8314 9.1C61.3114 8.62 61.0514 7.96667 61.0514 7.14C61.0514 6.20667 61.4247 5.46667 62.1714 4.92C62.9314 4.36 63.9514 4.08 65.2314 4.08C65.8714 4.08 66.4514 4.14667 66.9714 4.28C67.5047 4.4 67.9247 4.59333 68.2314 4.86C68.5381 5.11333 68.6914 5.43333 68.6914 5.82C68.6914 6.08667 68.6381 6.32 68.5314 6.52C68.4247 6.72 68.2847 6.88667 68.1114 7.02C67.9647 6.92667 67.7381 6.82667 67.4314 6.72C67.1381 6.61333 66.8114 6.52667 66.4514 6.46C66.1047 6.39333 65.7781 6.36 65.4714 6.36C64.9914 6.36 64.6181 6.42667 64.3514 6.56C64.0847 6.68 63.9514 6.87333 63.9514 7.14C63.9514 7.31333 64.0247 7.46667 64.1714 7.6C64.3314 7.72 64.6047 7.82 64.9914 7.9L65.7914 8.1C66.9781 8.36667 67.8314 8.75333 68.3514 9.26C68.8714 9.75333 69.1314 10.4 69.1314 11.2ZM80.778 9.2C80.778 10.24 80.5646 11.1467 80.138 11.92C79.7246 12.68 79.138 13.2667 78.378 13.68C77.618 14.0933 76.7246 14.3 75.698 14.3C74.6846 14.3 73.7913 14.1 73.018 13.7C72.258 13.2867 71.6646 12.7 71.238 11.94C70.8246 11.1667 70.618 10.2533 70.618 9.2C70.618 8.14667 70.8313 7.24667 71.258 6.5C71.6846 5.74 72.278 5.15333 73.038 4.74C73.8113 4.31333 74.698 4.1 75.698 4.1C76.7113 4.1 77.598 4.31333 78.358 4.74C79.118 5.15333 79.7113 5.74667 80.138 6.52C80.5646 7.28 80.778 8.17333 80.778 9.2ZM75.698 6.44C75.0713 6.44 74.5713 6.68 74.198 7.16C73.838 7.64 73.658 8.32 73.658 9.2C73.658 10.0933 73.838 10.78 74.198 11.26C74.558 11.7267 75.058 11.96 75.698 11.96C76.338 11.96 76.838 11.72 77.198 11.24C77.558 10.76 77.738 10.08 77.738 9.2C77.738 8.33333 77.558 7.66 77.198 7.18C76.838 6.68667 76.338 6.44 75.698 6.44ZM97.5444 8.02V12.18C97.5444 12.5533 97.471 12.84 97.3244 13.04C97.191 13.2267 96.9644 13.4067 96.6444 13.58C96.2844 13.78 95.7644 13.9533 95.0844 14.1C94.4044 14.26 93.7244 14.34 93.0444 14.34C91.7644 14.34 90.611 14.12 89.5844 13.68C88.571 13.2267 87.7644 12.5333 87.1644 11.6C86.5777 10.6533 86.2844 9.44 86.2844 7.96C86.2844 6.54667 86.5844 5.36667 87.1844 4.42C87.7844 3.46 88.591 2.74 89.6044 2.26C90.631 1.76667 91.7644 1.52 93.0044 1.52C93.831 1.52 94.5444 1.60667 95.1444 1.78C95.7577 1.95333 96.2244 2.19333 96.5444 2.5C96.8777 2.80667 97.0444 3.16 97.0444 3.56C97.0444 3.85333 96.9644 4.12 96.8044 4.36C96.6577 4.58667 96.4777 4.76 96.2644 4.88C95.931 4.66667 95.511 4.46667 95.0044 4.28C94.4977 4.09333 93.9044 4 93.2244 4C92.491 4 91.831 4.16 91.2444 4.48C90.671 4.78667 90.2244 5.24 89.9044 5.84C89.5844 6.42667 89.4244 7.12667 89.4244 7.94C89.4244 8.82 89.5777 9.55333 89.8844 10.14C90.2044 10.7267 90.6377 11.1667 91.1844 11.46C91.7444 11.74 92.3777 11.88 93.0844 11.88C93.4177 11.88 93.7177 11.8467 93.9844 11.78C94.2644 11.7133 94.4777 11.6467 94.6244 11.58V9.24H92.2844C92.2044 9.10667 92.131 8.94 92.0644 8.74C91.9977 8.52667 91.9644 8.3 91.9644 8.06C91.9644 7.64667 92.0577 7.34667 92.2444 7.16C92.4444 6.96 92.7044 6.86 93.0244 6.86H96.3844C96.7444 6.86 97.0244 6.96 97.2244 7.16C97.4377 7.36 97.5444 7.64667 97.5444 8.02ZM101.208 10.6L101.088 8.6L106.048 7.82C106.021 7.44667 105.861 7.1 105.568 6.78C105.275 6.46 104.841 6.3 104.268 6.3C103.668 6.3 103.168 6.50667 102.768 6.92C102.368 7.32 102.155 7.89333 102.128 8.64L102.228 10.02C102.348 10.7533 102.661 11.28 103.168 11.6C103.675 11.9067 104.275 12.06 104.968 12.06C105.528 12.06 106.055 11.98 106.548 11.82C107.041 11.66 107.441 11.4933 107.748 11.32C107.948 11.44 108.108 11.6067 108.228 11.82C108.361 12.0333 108.428 12.26 108.428 12.5C108.428 12.9 108.268 13.2333 107.948 13.5C107.641 13.7667 107.208 13.9667 106.648 14.1C106.101 14.2333 105.475 14.3 104.768 14.3C103.741 14.3 102.815 14.1067 101.988 13.72C101.175 13.3333 100.535 12.7533 100.068 11.98C99.6013 11.2067 99.368 10.24 99.368 9.08C99.368 8.22667 99.5013 7.48667 99.768 6.86C100.048 6.23333 100.415 5.72 100.868 5.32C101.335 4.90667 101.855 4.6 102.428 4.4C103.015 4.2 103.621 4.1 104.248 4.1C105.168 4.1 105.968 4.28667 106.648 4.66C107.341 5.02 107.881 5.51333 108.268 6.14C108.655 6.76667 108.848 7.49333 108.848 8.32C108.848 8.73333 108.735 9.04667 108.508 9.26C108.281 9.47333 107.968 9.60667 107.568 9.66L101.208 10.6ZM110.768 8.72L113.748 8.78V13.98C113.614 14.02 113.428 14.0533 113.188 14.08C112.948 14.12 112.688 14.14 112.408 14.14C111.848 14.14 111.434 14.04 111.168 13.84C110.901 13.64 110.768 13.28 110.768 12.76V8.72ZM113.748 10.32L110.768 10.26V0.98C110.901 0.939999 111.088 0.899999 111.328 0.86C111.568 0.82 111.828 0.799999 112.108 0.799999C112.681 0.799999 113.094 0.899999 113.348 1.1C113.614 1.3 113.748 1.66667 113.748 2.2V10.32ZM120.116 12.1C120.422 12.1 120.722 12.0733 121.016 12.02C121.322 11.9533 121.542 11.88 121.676 11.8V9.88L119.996 10.04C119.542 10.0667 119.182 10.16 118.916 10.32C118.649 10.48 118.516 10.72 118.516 11.04C118.516 11.36 118.642 11.62 118.896 11.82C119.149 12.0067 119.556 12.1 120.116 12.1ZM119.996 4.1C121.382 4.1 122.489 4.39333 123.316 4.98C124.142 5.55333 124.556 6.44667 124.556 7.66V12.2C124.556 12.5333 124.469 12.8067 124.296 13.02C124.122 13.22 123.902 13.3933 123.636 13.54C123.236 13.78 122.736 13.9667 122.136 14.1C121.549 14.2467 120.876 14.32 120.116 14.32C118.756 14.32 117.669 14.0533 116.856 13.52C116.056 12.9867 115.656 12.1933 115.656 11.14C115.656 10.2333 115.936 9.54 116.496 9.06C117.056 8.56667 117.889 8.26667 118.996 8.16L121.656 7.88V7.64C121.656 7.18667 121.476 6.86 121.116 6.66C120.769 6.46 120.269 6.36 119.616 6.36C119.109 6.36 118.609 6.42 118.116 6.54C117.636 6.66 117.202 6.8 116.816 6.96C116.656 6.85333 116.516 6.69333 116.396 6.48C116.289 6.25333 116.236 6.02 116.236 5.78C116.236 5.22 116.542 4.81333 117.156 4.56C117.542 4.4 117.989 4.28667 118.496 4.22C119.016 4.14 119.516 4.1 119.996 4.1ZM133.06 11.62V5.6H136.02V12C136.02 12.32 135.953 12.5933 135.82 12.82C135.686 13.0333 135.473 13.2267 135.18 13.4C134.82 13.64 134.346 13.8467 133.76 14.02C133.186 14.2067 132.52 14.3 131.76 14.3C130.653 14.3 129.693 14.1133 128.88 13.74C128.08 13.3667 127.46 12.8067 127.02 12.06C126.593 11.3 126.38 10.36 126.38 9.24C126.38 8.06667 126.6 7.10667 127.04 6.36C127.493 5.6 128.1 5.03333 128.86 4.66C129.62 4.28667 130.46 4.1 131.38 4.1C131.86 4.1 132.286 4.15333 132.66 4.26C133.033 4.36667 133.34 4.49333 133.58 4.64V7.08C133.393 6.92 133.146 6.77333 132.84 6.64C132.533 6.50667 132.18 6.44 131.78 6.44C131.313 6.44 130.9 6.54 130.54 6.74C130.18 6.94 129.9 7.24667 129.7 7.66C129.5 8.07333 129.4 8.6 129.4 9.24C129.4 10.1733 129.606 10.86 130.02 11.3C130.446 11.74 131.02 11.96 131.74 11.96C132.033 11.96 132.293 11.9267 132.52 11.86C132.746 11.78 132.926 11.7 133.06 11.62ZM136.02 6.18L133.06 6.2V0.98C133.18 0.939999 133.36 0.899999 133.6 0.86C133.84 0.82 134.1 0.799999 134.38 0.799999C134.966 0.799999 135.386 0.899999 135.64 1.1C135.893 1.3 136.02 1.66667 136.02 2.2V6.18ZM148.083 9.2C148.083 10.24 147.869 11.1467 147.443 11.92C147.029 12.68 146.443 13.2667 145.683 13.68C144.923 14.0933 144.029 14.3 143.003 14.3C141.989 14.3 141.096 14.1 140.323 13.7C139.563 13.2867 138.969 12.7 138.543 11.94C138.129 11.1667 137.923 10.2533 137.923 9.2C137.923 8.14667 138.136 7.24667 138.563 6.5C138.989 5.74 139.583 5.15333 140.343 4.74C141.116 4.31333 142.003 4.1 143.003 4.1C144.016 4.1 144.903 4.31333 145.663 4.74C146.423 5.15333 147.016 5.74667 147.443 6.52C147.869 7.28 148.083 8.17333 148.083 9.2ZM143.003 6.44C142.376 6.44 141.876 6.68 141.503 7.16C141.143 7.64 140.963 8.32 140.963 9.2C140.963 10.0933 141.143 10.78 141.503 11.26C141.863 11.7267 142.363 11.96 143.003 11.96C143.643 11.96 144.143 11.72 144.503 11.24C144.863 10.76 145.043 10.08 145.043 9.2C145.043 8.33333 144.863 7.66 144.503 7.18C144.143 6.68667 143.643 6.44 143.003 6.44Z" fill="#403937"/>
</svg>
